<svg height="512pt" viewBox="0 0 512.00055 512" width="512pt" xmlns="http://www.w3.org/2000/svg"><path d="m150.003906 81.992188c-77.324218 0-140.003906 62.679687-140.003906 140.003906 0 70.53125 52.152344 128.878906 120.003906 138.582031v61.421875h-40.003906v40h40.003906v40h40v-40h40v-40h-40v-61.421875c67.875-9.703125 120-68.113281 120-138.582031 0-77.699219-63.039062-140.003906-140-140.003906zm0 240.003906c-51.496094 0-94.4375-38.90625-99.492187-90.011719-5.96875-58.929687 40.390625-109.992187 99.492187-109.992187 54.949219 0 100 44.675781 100 100.003906 0 57.242187-46.976562 100-100 100zm0 0" fill="#ff80ac"/><path d="m502 10-14.140625 99.003906-28.289063-28.292968-43.433593 43.429687c41.121093 54.84375 36.742187 132.972656-13.140625 182.84375-44.800782 44.8125-112.410156 52.902344-165.453125 24.273437 10.941406-8.773437 20.53125-19.152343 28.402343-30.792968l.011719.011718c36.199219 14.839844 79.410157 7.578126 108.761719-21.769531 38.988281-38.992187 38.988281-102.433593 0-141.425781-33.84375-33.847656-86.113281-38.308594-124.824219-13.390625-9.738281-9.910156-20.949219-18.386719-33.28125-25.058594 38.140625-29.441406 107.832031-50.519531 171.246094-2.96875l43.429687-43.433593-28.292968-28.289063zm0 0" fill="#64e1dc"/><path d="m188.042969 129.511719c12.539062 5.171875 23.8125 12.832031 33.179687 22.351562-26.238281 38.679688-22.398437 91.800781 11.5 126.253907-.007812.007812-.007812.007812 0 .007812-6.925781 10.390625-17.511718 20.90625-28.648437 27.949219l-.058594-.089844c-47.351563-48.289063-52.671875-122.378906-15.972656-176.472656zm0 0" fill="#64e1dc"/><path d="m50.511719 231.984375c5.289062-.269531 9.488281-4.640625 9.488281-9.988281 0-5.53125-4.492188-10.003906-10-10.003906-5.519531 0-10 4.480468-10 10.003906 0 5.855468 4.988281 10.3125 10.511719 9.988281zm0 0"/><path d="m260.003906 221.996094c0-60.597656-49.3125-110.003906-110-110.003906-44.042968 0-81.832031 24.902343-101.082031 66.609374-2.3125 5.015626-.125 10.957032 4.890625 13.269532 5.007812 2.316406 10.953125.128906 13.269531-4.886719 15.894531-34.433594 46.890625-54.992187 82.921875-54.992187 7.925782 0 15.617188 1.035156 22.945313 2.96875-29.9375 53.660156-23.828125 120.953124 15.300781 168.433593-11.84375 5.550781-24.925781 8.601563-38.246094 8.601563-36.191406 0-68.6875-21.476563-82.796875-54.710938-2.15625-5.082031-8.023437-7.453125-13.113281-5.296875-5.082031 2.160157-7.453125 8.027344-5.296875 13.113281 17.160156 40.429688 57.285156 66.894532 101.207031 66.894532 61.175782 0 110-49.289063 110-110zm-28.785156 38.882812c-19.328125-26.632812-22.570312-62.039062-8.402344-91.714844 10.804688 14.847657 17.1875 33.105469 17.1875 52.832032 0 13.425781-3.128906 27.03125-8.785156 38.882812zm-25.714844 31.953125c-36.144531-41.953125-41.6875-102.839843-13.714844-150.53125 5.964844 3.140625 11.535157 6.929688 16.621094 11.277344-22.675781 39.84375-18.085937 90.089844 11.433594 125.195313-4.222656 5.230468-9.046875 9.9375-14.339844 14.058593zm0 0"/><path d="m511.898438 11.414062c.445312-3.117187-.601563-6.261718-2.828126-8.484374-2.226562-2.226563-5.375-3.273438-8.484374-2.828126l-99 14.140626c-3.75.535156-6.875 3.144531-8.074219 6.738281-1.195313 3.59375-.261719 7.554687 2.414062 10.230469l21.222657 21.222656-30.394532 30.390625c-55.15625-36.933594-121.460937-30.679688-171.09375 4.296875-20.335937-9.90625-42.894531-15.128906-65.65625-15.128906-82.710937 0-150.003906 67.289062-150.003906 150.003906 0 71.628906 50.609375 132.882812 120.003906 146.996094v43.003906h-30.003906c-5.519531 0-10 4.480468-10 10.003906v40c0 5.519531 4.480469 10 10 10h30.003906v30c0 5.523438 4.476563 10 10 10h40c5.523438 0 10-4.476562 10-10v-30h30c5.523438 0 10-4.480469 10-10v-40c0-5.523438-4.476562-10.003906-10-10.003906h-30v-43.003906c21.140625-4.300782 41.152344-13.175782 58.613282-25.980469 55.5625 26.847656 124.707031 17.804687 171.453124-28.953125 50.664063-50.652344 58.179688-129.746094 19.089844-188.792969l30.410156-30.410156 21.21875 21.21875c2.679688 2.679687 6.640626 3.609375 10.234376 2.417969 3.59375-1.199219 6.199218-4.324219 6.734374-8.074219zm-343.308594 339.265626c-4.925782.703124-8.585938 4.921874-8.585938 9.898437v61.421875c0 5.519531 4.476563 10 10 10h30v20h-30c-5.523437 0-10 4.476562-10 10v30h-20v-30c0-5.523438-4.480468-10-10-10h-30v-20h30c5.519532 0 10-4.480469 10-10v-61.421875c0-4.976563-3.660156-9.195313-8.585937-9.898437-63.519531-9.082032-111.417969-64.402344-111.417969-128.683594 0-71.6875 58.320312-130.003906 130.003906-130.003906 70.957032 0 130 57.335937 130 130.003906 0 66.0625-48.972656 119.757812-111.414062 128.683594zm97.136718-224.132813c33.792969-15.8125 75.019532-9.101563 101.917969 17.808594 35.09375 35.089843 35.09375 92.1875 0 127.277343-22.898437 22.902344-55.851562 31.496094-86.609375 23.363282 12.433594-22.238282 18.972656-47.21875 18.972656-73 0-35.195313-12.09375-68.621094-34.28125-95.449219zm215.0625-38.757813-14.148437-14.148437c-3.90625-3.902344-10.238281-3.90625-14.144531 0l-43.429688 43.429687c-3.519531 3.519532-3.914062 9.089844-.929687 13.070313 38.496093 51.339844 33.246093 124.328125-12.210938 169.777344-36.855469 36.863281-92.800781 47.753906-140.429687 28.695312 5.089844-5.035156 9.804687-10.425781 14.117187-16.136719 39.355469 12.953126 82.621094 2.855469 112.175781-26.699218 42.890626-42.890625 42.890626-112.675782 0-155.566406-34.425781-34.433594-87.59375-42.074219-130.433593-18.773438-5.179688-4.75-10.660157-9.125-16.421875-13.089844 37.882812-23.21875 94.707031-33.640625 146.925781 5.515625 3.976563 2.984375 9.550781 2.589844 13.066406-.929687l43.433594-43.429688c3.902344-3.90625 3.902344-10.238281 0-14.144531l-14.148437-14.148437 66.003906-9.425782zm0 0"/></svg>